<?xml version="1.0" standalone="no"?>
<!DOCTYPE svg PUBLIC "-//W3C//DTD SVG 20010904//EN"
 "http://www.w3.org/TR/2001/REC-SVG-20010904/DTD/svg10.dtd">
<svg version="1.0" xmlns="http://www.w3.org/2000/svg"
 width="512.000000pt" height="512.000000pt" viewBox="0 0 512.000000 512.000000"
 preserveAspectRatio="xMidYMid meet">
<metadata>
Created by potrace 1.14, written by Peter Selinger 2001-2017
</metadata>
<g transform="translate(0.000000,512.000000) scale(0.100000,-0.100000)"
fill="#000000" stroke="none">
<path d="M3228 5080 c-26 -10 -59 -27 -75 -39 -44 -35 -231 -221 -237 -237 -3
-9 -10 -12 -16 -9 -5 3 -10 2 -10 -3 0 -8 -67 -77 -342 -349 -162 -161 -192
-199 -202 -254 -3 -13 -5 -24 -6 -24 -1 0 -3 -21 -4 -47 -2 -27 1 -48 5 -48 5
0 6 -6 3 -14 -3 -8 2 -28 11 -45 8 -17 13 -31 10 -31 -3 0 3 -10 14 -22 11
-11 18 -25 15 -30 -3 -4 -1 -8 4 -8 5 0 56 -47 114 -105 l105 -106 -49 -51
-49 -51 -223 219 c-122 120 -229 224 -237 230 -29 22 -169 51 -169 36 0 -5
-10 -8 -22 -7 -13 1 -27 0 -33 -4 -5 -3 -12 -6 -15 -7 -19 -3 -67 -27 -75 -37
-6 -7 -27 -27 -47 -45 l-36 -34 -17 59 c-9 32 -21 67 -25 78 -4 11 -13 34 -18
50 -6 17 -13 39 -18 50 -4 11 -8 26 -10 33 -1 8 -6 21 -10 30 -8 19 -11 28
-13 41 0 5 -19 31 -40 59 -46 58 -81 71 -163 60 -10 -1 -18 -6 -18 -11 0 -4
-4 -6 -9 -3 -4 3 -43 -28 -85 -69 -70 -68 -79 -73 -102 -65 -113 43 -218 -55
-187 -173 l11 -39 -65 -65 c-110 -110 -125 -193 -48 -270 20 -20 117 -71 148
-77 7 -2 25 -8 40 -14 16 -7 34 -12 42 -12 8 0 17 -5 20 -10 4 -6 10 -8 14 -5
5 2 21 -2 37 -9 16 -8 40 -16 54 -18 14 -2 31 -9 39 -16 12 -12 4 -24 -57 -85
-111 -112 -132 -141 -149 -211 -7 -31 -2 -134 7 -143 1 -2 4 -7 5 -13 1 -5 4
-13 5 -17 1 -5 2 -11 1 -15 0 -5 3 -8 9 -8 5 0 10 -6 10 -12 0 -7 100 -113
222 -235 l222 -222 -52 -49 -52 -50 -112 114 c-104 105 -165 150 -213 157 -11
1 -24 5 -30 8 -5 3 -32 5 -60 4 -104 -5 -124 -21 -483 -378 -184 -183 -350
-350 -370 -371 -20 -21 -44 -46 -53 -55 -65 -63 -85 -217 -39 -307 36 -70 768
-801 836 -835 68 -33 189 -33 252 0 27 14 176 155 402 381 377 376 420 422
424 442 1 7 8 24 16 38 9 15 14 53 14 95 0 105 -23 145 -156 281 -62 63 -114
118 -116 122 -1 4 20 29 46 55 l48 48 162 -165 c135 -138 217 -206 252 -211 3
0 11 -4 18 -8 6 -5 12 -6 12 -2 0 3 10 0 22 -6 27 -14 74 -21 158 -21 57 -1
150 7 158 12 1 2 7 4 12 5 6 1 11 3 13 4 1 2 13 4 26 7 13 2 50 18 84 34 33
16 63 27 66 25 2 -3 -1 -5 -8 -5 -7 0 -9 -5 -6 -10 4 -6 2 -16 -3 -23 -5 -7
-10 -19 -10 -27 0 -8 -3 -26 -7 -40 -8 -32 -14 -192 -7 -204 3 -5 7 -27 8 -49
2 -21 8 -45 14 -51 5 -7 7 -16 3 -19 -3 -4 -1 -12 5 -19 6 -7 10 -15 10 -18
-1 -37 146 -260 172 -260 10 0 310 301 310 311 0 5 4 9 10 9 5 0 26 18 46 40
21 22 40 37 43 33 3 -5 28 -19 54 -33 27 -14 56 -32 66 -40 9 -8 23 -16 31
-18 8 -2 17 -7 20 -10 7 -10 62 -42 83 -49 9 -3 17 -9 17 -14 0 -5 6 -9 14 -9
7 0 25 -11 39 -24 23 -21 25 -29 17 -51 -28 -73 33 -159 120 -170 102 -13 189
107 143 197 -15 31 -54 71 -74 77 -26 8 -98 8 -110 0 -10 -6 -24 11 -51 57
-21 36 -38 70 -38 75 0 5 -4 9 -10 9 -5 0 -10 7 -10 15 0 8 -4 15 -8 15 -5 0
-19 23 -31 50 -12 28 -27 50 -32 50 -5 0 -9 6 -9 13 0 6 -9 23 -19 37 l-19 24
199 200 c109 110 199 203 199 206 0 8 -38 42 -95 86 -46 35 -150 85 -215 103
-25 7 -56 16 -70 20 -65 19 -339 -10 -360 -39 -3 -4 -17 -9 -31 -12 l-27 -5
15 36 c15 35 23 62 27 91 1 9 4 20 8 25 3 6 4 29 3 53 -1 23 2 42 7 42 5 0 7
3 4 8 -2 4 -5 30 -7 57 -1 28 -5 55 -8 60 -6 11 -10 28 -13 63 -1 12 -6 22
-11 22 -4 0 -6 4 -3 8 5 8 -30 92 -42 102 -4 3 -71 71 -150 151 -78 80 -144
144 -145 142 -2 -1 -10 9 -18 23 -12 23 -11 27 4 39 9 7 17 16 17 20 0 8 51
50 62 50 4 0 58 -51 121 -112 63 -62 120 -113 126 -113 6 0 11 -4 11 -9 0 -8
46 -24 53 -19 2 2 10 -2 18 -8 11 -9 137 -12 147 -4 1 1 5 3 10 5 13 3 57 25
76 37 11 7 192 185 402 395 355 354 383 385 404 440 29 76 24 167 -12 234 -16
30 -158 179 -406 427 -297 296 -392 386 -429 402 -65 29 -155 34 -215 10z"/>
<path d="M4385 1843 c-11 -3 -27 -11 -36 -19 -9 -8 -19 -11 -22 -7 -4 3 -7 -1
-7 -10 0 -9 -4 -17 -10 -17 -13 0 -28 -64 -29 -129 -1 -29 -3 -56 -5 -60 -2
-3 -7 -23 -10 -44 -8 -53 -42 -150 -76 -217 -40 -79 -137 -200 -160 -200 -6 0
-9 -3 -8 -7 2 -5 0 -9 -4 -11 -4 -1 -20 -14 -34 -27 -15 -14 -33 -25 -40 -25
-8 0 -14 -4 -14 -8 0 -5 -30 -23 -67 -41 -38 -18 -76 -37 -87 -43 -14 -7 -16
-7 -10 4 6 11 5 11 -8 0 -15 -12 -39 -20 -83 -27 -11 -2 -20 -4 -20 -5 0 -4
-48 -10 -118 -15 -84 -5 -114 -20 -149 -73 -39 -59 -12 -151 54 -192 28 -18
47 -20 125 -18 51 2 93 6 93 9 0 3 14 5 30 4 17 -1 30 3 30 8 0 6 3 8 6 5 3
-4 20 -2 37 3 18 6 39 12 47 14 8 2 27 8 43 14 15 6 27 9 27 6 0 -2 39 16 88
39 181 89 318 210 426 375 33 51 60 98 58 102 -1 5 3 9 10 9 6 0 8 3 5 7 -4 3
-3 11 2 17 16 19 72 190 67 203 -3 7 -2 13 3 13 8 0 9 4 14 71 2 25 6 50 9 55
3 5 4 41 3 80 -2 74 -17 108 -65 141 -21 15 -85 24 -115 16z"/>
<path d="M4900 1783 c-38 -20 -84 -79 -76 -100 3 -7 1 -15 -3 -17 -5 -3 -3
-29 3 -58 20 -86 13 -206 -20 -353 -25 -114 -132 -311 -230 -425 -77 -89 -216
-220 -234 -220 -5 0 -10 -4 -10 -10 0 -5 -6 -10 -14 -10 -8 0 -16 -7 -20 -15
-3 -8 -12 -15 -21 -15 -8 0 -15 -4 -15 -10 0 -5 -6 -10 -14 -10 -8 0 -16 -3
-18 -7 -4 -10 -80 -47 -90 -45 -5 1 -8 -3 -8 -10 0 -6 -3 -8 -7 -5 -3 4 -11 3
-17 -2 -7 -6 -52 -22 -101 -36 -110 -33 -239 -39 -349 -19 -90 17 -127 10
-170 -35 -64 -67 -31 -210 52 -226 12 -2 27 -7 32 -10 11 -7 29 -10 105 -20
27 -3 51 -8 53 -10 2 -2 15 0 28 5 13 5 26 6 28 1 3 -5 18 -7 33 -5 16 2 53 6
83 9 62 6 104 12 108 15 2 3 6 4 57 14 22 4 44 11 50 14 5 4 19 8 29 9 11 2
25 8 33 14 7 6 13 9 13 6 0 -8 184 84 188 95 2 4 8 8 14 8 8 0 94 56 108 70 3
3 25 21 50 39 56 42 255 244 278 283 9 15 20 28 24 28 4 0 8 7 8 15 0 8 3 15
8 15 9 0 73 102 72 114 -1 5 2 12 7 15 9 6 46 74 71 131 35 77 75 213 90 303
11 68 7 328 -6 372 -12 42 -68 109 -82 100 -5 -3 -11 -2 -14 3 -9 15 -71 12
-106 -5z"/>
</g>
</svg>
