<?xml version="1.0" standalone="no"?>
<!DOCTYPE svg PUBLIC "-//W3C//DTD SVG 20010904//EN"
 "http://www.w3.org/TR/2001/REC-SVG-20010904/DTD/svg10.dtd">
<svg version="1.0" xmlns="http://www.w3.org/2000/svg"
 width="512.000000pt" height="512.000000pt" viewBox="0 0 512.000000 512.000000"
 preserveAspectRatio="xMidYMid meet">
<metadata>
Created by potrace 1.14, written by Peter Selinger 2001-2017
</metadata>
<g transform="translate(0.000000,512.000000) scale(0.100000,-0.100000)"
fill="#000000" stroke="none">
<path d="M3248 5086 c-26 -7 -64 -25 -85 -39 -21 -15 -205 -194 -410 -399
-413 -415 -415 -417 -415 -539 0 -99 30 -152 168 -289 l114 -115 -51 -48 -52
-48 -226 224 c-204 203 -231 226 -280 242 -64 21 -168 16 -218 -9 -17 -9 -54
-37 -81 -61 l-49 -44 -57 172 c-77 231 -120 290 -210 290 -56 0 -92 -21 -170
-98 -60 -59 -68 -64 -92 -55 -114 44 -228 -70 -184 -184 9 -24 4 -32 -55 -92
-36 -36 -72 -79 -81 -95 -30 -58 -15 -138 32 -180 33 -29 94 -55 257 -109
l158 -52 -99 -102 c-108 -111 -137 -166 -133 -256 4 -109 16 -127 259 -372
l225 -227 -50 -49 -50 -50 -104 105 c-57 58 -122 117 -144 131 -49 31 -125 50
-184 45 -97 -8 -123 -29 -527 -435 -254 -255 -389 -398 -405 -428 -33 -64 -33
-176 0 -242 33 -68 769 -806 838 -839 67 -33 188 -33 251 0 27 14 183 162 425
404 414 414 427 430 432 537 3 60 -17 139 -43 173 -9 12 -66 72 -127 135
l-109 112 50 51 50 50 162 -165 c169 -173 204 -199 317 -232 138 -40 358 -8
496 72 4 2 0 -15 -8 -39 -21 -59 -28 -119 -26 -212 1 -98 23 -185 69 -279 34
-68 126 -196 142 -196 4 0 95 88 202 195 107 107 200 195 205 195 6 0 87 -46
180 -103 l171 -102 -9 -43 c-7 -35 -5 -51 13 -87 52 -107 198 -107 251 1 55
115 -48 226 -180 193 -9 -3 -50 55 -117 166 -57 94 -103 175 -104 180 0 6 88
97 195 204 107 107 195 198 195 202 0 14 -84 80 -150 119 -182 105 -374 124
-572 55 -72 -24 -75 -23 -57 22 12 30 14 41 29 117 21 104 -1 279 -46 369 -9
18 -92 109 -185 202 l-169 170 50 50 50 49 118 -117 c140 -138 181 -161 287
-161 121 0 124 3 556 435 356 355 388 391 408 443 27 72 27 140 0 211 -19 52
-53 89 -408 444 -294 294 -399 393 -435 410 -59 27 -136 34 -198 17z"/>
<path d="M4384 1843 c-49 -9 -104 -87 -102 -143 2 -57 -17 -167 -43 -243 -57
-169 -152 -292 -299 -391 -115 -76 -257 -122 -402 -131 -46 -3 -81 -11 -101
-24 -91 -56 -88 -183 5 -242 30 -18 44 -20 136 -15 57 3 106 8 110 10 4 2 23
7 42 10 55 8 158 44 245 85 238 112 430 323 523 576 58 158 84 356 56 425 -29
70 -89 99 -170 83z"/>
<path d="M4900 1782 c-19 -9 -45 -33 -58 -52 -22 -31 -23 -42 -17 -100 18
-175 10 -273 -35 -415 -60 -184 -161 -340 -324 -499 -248 -242 -540 -351 -804
-301 -70 14 -110 12 -141 -5 -87 -47 -95 -180 -13 -238 52 -37 205 -58 377
-50 48 2 216 41 280 64 344 129 678 445 839 796 82 178 117 352 111 548 -5
170 -26 224 -102 256 -43 18 -71 18 -113 -4z"/>
</g>
</svg>
